<svg xmlns="http://www.w3.org/2000/svg" version="1.1" xmlns:xlink="http://www.w3.org/1999/xlink" xmlns:svgjs="http://svgjs.dev/svgjs" width="1000" height="750" viewBox="0 0 1000 750"><rect width="1000" height="750" fill="#0080ff"></rect><g transform="matrix(0.834,0,0,0.834,82.49454545454546,115.4193570850203)"><svg viewBox="0 0 396 247" data-background-color="#0080ff" preserveAspectRatio="xMidYMid meet" height="623" width="1000" xmlns="http://www.w3.org/2000/svg" xmlns:xlink="http://www.w3.org/1999/xlink"><g id="tight-bounds" transform="matrix(1,0,0,1,0.2400000000000091,-0.09999999999999432)"><svg viewBox="0 0 395.52 247.2" height="247.2" width="395.52"><g><svg></svg></g><g><svg viewBox="0 0 395.52 247.2" height="247.2" width="395.52"><g mask="url(#ffa2ab15-f11b-407c-b6ea-fe490c7e5d35)"><g><path d="M184.691 192.903h-44.948v-138.606h44.948c16.237 0 29.609 2.838 40.117 8.514 10.481 5.676 18.27 13.689 23.365 24.038 5.069 10.376 7.604 22.692 7.604 36.949v0c0 14.125-2.535 26.362-7.604 36.711-5.095 10.376-12.884 18.362-23.365 23.959-10.508 5.623-23.88 8.435-40.117 8.435zM160.732 71.919v103.164h23.167c12.541 0 22.481-2.046 29.821-6.139 7.313-4.092 12.593-9.966 15.84-17.623 3.221-7.656 4.831-16.831 4.832-27.523v0c0-10.693-1.61-19.933-4.832-27.721-3.247-7.788-8.528-13.768-15.84-17.94-7.34-4.145-17.28-6.218-29.821-6.218v0z" fill="#ffffff" fill-rule="nonzero" stroke="none" stroke-width="1" stroke-linecap="butt" stroke-linejoin="miter" stroke-miterlimit="10" stroke-dasharray="" stroke-dashoffset="0" font-family="none" font-weight="none" font-size="none" text-anchor="none" style="mix-blend-mode: normal" data-fill-palette-color="tertiary"></path></g></g><g transform="matrix(1,0,0,1,139.4500825639875,37.08)"><svg viewBox="0 0 116.61983487202497 173.04" height="173.04" width="116.61983487202497"><g><svg viewBox="0 0 116.61983487202497 173.04" height="173.04" width="116.61983487202497"><g><svg viewBox="0 0 147.464800476 218.8076248124425" height="173.04" width="116.61983487202497"><g><svg viewBox="0 0 147.464800476 218.8076248124425" height="218.8076248124425" width="147.464800476"><g id="textblocktransform"><svg viewBox="0 0 147.464800476 218.8076248124425" height="218.8076248124425" width="147.464800476" id="textblock"><g><svg viewBox="0 0 147.464800476 171.9706128" height="171.9706128" width="147.464800476"><g transform="matrix(1,0,0,1,0,0)"><svg width="147.464800476" viewBox="0.5499999999999998 -38 35.3 41" height="171.9706128" data-palette-color="#ffffff"><path d="M14.9 0L3.55 0 3.55-35 14.9-35Q21.05-35 25.03-32.85 29-30.7 30.93-26.78 32.85-22.85 32.85-17.45L32.85-17.45Q32.85-12.1 30.93-8.18 29-4.25 25.03-2.13 21.05 0 14.9 0L14.9 0ZM8.85-30.55L8.85-4.5 14.7-4.5Q19.45-4.5 22.23-6.05 25-7.6 26.23-10.5 27.45-13.4 27.45-17.45L27.45-17.45Q27.45-21.5 26.23-24.45 25-27.4 22.23-28.98 19.45-30.55 14.7-30.55L14.7-30.55 8.85-30.55Z" opacity="1" transform="matrix(1,0,0,1,0,0)" fill="#ffffff" class="undefined-text-0" data-fill-palette-color="primary" id="text-0"></path></svg></g></svg></g><g transform="matrix(1,0,0,1,2.5,193.9284225394488)"><svg viewBox="0 0 142.464800476 24.87920227299369" height="24.87920227299369" width="142.464800476"><g transform="matrix(1,0,0,1,0,0)"><svg width="142.464800476" viewBox="-0.08999999999999986 -40.5 247.13 43.99" height="24.87920227299369" data-palette-color="#ffffff"><path d="M25.56-11.28L30.3-11.28Q29.93-7.93 28.37-5.26 26.81-2.59 23.95-1.05 21.09 0.49 16.8 0.49L16.8 0.49Q12.62 0.49 9.5-1.55 6.37-3.59 4.64-7.3 2.91-11.01 2.91-15.97L2.91-15.97 2.91-19.56Q2.91-24.54 4.65-28.23 6.4-31.93 9.62-33.98 12.84-36.04 17.24-36.04L17.24-36.04Q21.26-36.04 24.05-34.53 26.83-33.03 28.38-30.35 29.93-27.66 30.3-24.15L30.3-24.15 25.56-24.15Q25.02-27.88 23.18-30.04 21.34-32.2 17.24-32.2L17.24-32.2Q14.09-32.2 11.96-30.63 9.84-29.05 8.75-26.22 7.67-23.39 7.67-19.6L7.67-19.6 7.67-15.97Q7.67-12.48 8.64-9.61 9.62-6.74 11.63-5.03 13.65-3.32 16.8-3.32L16.8-3.32Q19.8-3.32 21.57-4.27 23.34-5.22 24.26-7.01 25.17-8.79 25.56-11.28L25.56-11.28ZM34.79-12.92L34.79-13.48Q34.79-17.31 36.25-20.34 37.72-23.36 40.4-25.13 43.09-26.9 46.77-26.9L46.77-26.9Q50.51-26.9 53.22-25.13 55.93-23.36 57.38-20.34 58.84-17.31 58.84-13.48L58.84-13.48 58.84-12.92Q58.84-9.11 57.38-6.07 55.93-3.03 53.23-1.27 50.53 0.49 46.82 0.49L46.82 0.49Q43.11 0.49 40.41-1.27 37.72-3.03 36.25-6.07 34.79-9.11 34.79-12.92L34.79-12.92ZM39.35-13.48L39.35-12.92Q39.35-10.3 40.18-8.08 41.01-5.86 42.66-4.52 44.31-3.17 46.82-3.17L46.82-3.17Q49.31-3.17 50.96-4.52 52.61-5.86 53.44-8.08 54.27-10.3 54.27-12.92L54.27-12.92 54.27-13.48Q54.27-16.09 53.44-18.31 52.61-20.53 50.95-21.89 49.29-23.24 46.77-23.24L46.77-23.24Q44.31-23.24 42.65-21.89 40.99-20.53 40.17-18.31 39.35-16.09 39.35-13.48L39.35-13.48ZM81.15-5.13L81.15-37.5 85.71-37.5 85.71 0 81.54 0 81.15-5.13ZM63.4-12.92L63.4-13.43Q63.4-17.46 64.7-20.5 66.01-23.54 68.35-25.22 70.7-26.9 73.85-26.9L73.85-26.9Q77.17-26.9 79.39-25.38 81.61-23.85 82.87-21.04 84.13-18.24 84.49-14.36L84.49-14.36 84.49-11.99Q84.13-8.15 82.88-5.36 81.64-2.56 79.4-1.04 77.17 0.49 73.8 0.49L73.8 0.49Q70.7 0.49 68.35-1.26 66.01-3 64.7-6.03 63.4-9.06 63.4-12.92L63.4-12.92ZM67.96-13.43L67.96-12.92Q67.96-10.28 68.68-8.11 69.4-5.93 70.94-4.63 72.48-3.32 74.92-3.32L74.92-3.32Q77.17-3.32 78.62-4.27 80.07-5.22 80.95-6.79 81.83-8.35 82.32-10.18L82.32-10.18 82.32-16.11Q82.03-17.46 81.48-18.71 80.93-19.97 80.06-20.96 79.19-21.95 77.94-22.53 76.68-23.12 74.97-23.12L74.97-23.12Q72.5-23.12 70.95-21.8 69.4-20.48 68.68-18.27 67.96-16.06 67.96-13.43L67.96-13.43ZM103.7 0.49L103.7 0.49Q100.02 0.49 97.29-1.16 94.57-2.81 93.07-5.69 91.57-8.57 91.57-12.28L91.57-12.28 91.57-13.33Q91.57-17.63 93.22-20.67 94.87-23.71 97.51-25.31 100.16-26.9 103.12-26.9L103.12-26.9Q106.93-26.9 109.33-25.21 111.74-23.51 112.87-20.59 114.01-17.68 114.01-13.99L114.01-13.99 114.01-11.96 94.28-11.96 94.28-15.63 109.44-15.63 109.44-15.97Q109.34-17.72 108.73-19.4 108.12-21.07 106.78-22.16 105.44-23.24 103.12-23.24L103.12-23.24Q101.07-23.24 99.49-22.08 97.92-20.92 97.03-18.71 96.14-16.5 96.14-13.33L96.14-13.33 96.14-12.28Q96.14-9.77 97.06-7.7 97.99-5.64 99.75-4.41 101.51-3.17 103.95-3.17L103.95-3.17Q106.34-3.17 108-4.15 109.66-5.13 110.91-6.76L110.91-6.76 113.66-4.61Q112.39-2.66 110.01-1.09 107.63 0.49 103.7 0.49ZM136.61-26.42L136.61 0 132.04 0 132.04-26.42 136.61-26.42ZM131.7-33.45L131.7-33.45Q131.7-34.52 132.37-35.28 133.04-36.04 134.36-36.04L134.36-36.04Q135.68-36.04 136.38-35.28 137.07-34.52 137.07-33.45L137.07-33.45Q137.07-32.4 136.38-31.65 135.68-30.91 134.36-30.91L134.36-30.91Q133.04-30.91 132.37-31.65 131.7-32.4 131.7-33.45ZM159.19-7.01L159.19-7.01Q159.19-7.98 158.76-8.83 158.33-9.67 157.04-10.36 155.75-11.06 153.13-11.6L153.13-11.6Q150.2-12.21 148.07-13.15 145.93-14.09 144.77-15.55 143.61-17.02 143.61-19.19L143.61-19.19Q143.61-21.29 144.82-23.03 146.03-24.78 148.24-25.84 150.45-26.9 153.4-26.9L153.4-26.9Q156.58-26.9 158.84-25.79 161.09-24.68 162.29-22.81 163.49-20.95 163.49-18.68L163.49-18.68 158.92-18.68Q158.92-20.31 157.49-21.78 156.06-23.24 153.4-23.24L153.4-23.24Q151.55-23.24 150.39-22.67 149.23-22.09 148.7-21.2 148.18-20.31 148.18-19.34L148.18-19.34Q148.18-18.36 148.67-17.64 149.15-16.92 150.46-16.36 151.77-15.8 154.26-15.23L154.26-15.23Q157.5-14.5 159.6-13.48 161.7-12.45 162.73-10.96 163.75-9.47 163.75-7.32L163.75-7.32Q163.75-5.03 162.49-3.26 161.22-1.49 158.92-0.5 156.63 0.49 153.53 0.49L153.53 0.49Q150.03 0.49 147.62-0.76 145.2-2 143.95-3.97 142.71-5.93 142.71-8.13L142.71-8.13 147.28-8.13Q147.4-6.27 148.36-5.19 149.33-4.1 150.73-3.64 152.13-3.17 153.53-3.17L153.53-3.17Q155.38-3.17 156.64-3.67 157.9-4.17 158.54-5.04 159.19-5.91 159.19-7.01ZM195.9-32.42L184.16 0 179.28 0 192.85-35.55 195.98-35.55 195.9-32.42ZM205.74 0L193.95-32.42 193.9-35.55 197-35.55 210.6 0 205.74 0ZM205.16-13.13L205.16-9.3 185.16-9.3 185.16-13.13 205.16-13.13ZM219.24-22.27L219.24 0 214.67 0 214.67-26.42 219.12-26.42 219.24-22.27ZM227.47-26.56L227.47-22.39Q226.88-22.51 226.38-22.55 225.88-22.58 225.25-22.58L225.25-22.58Q223.17-22.58 221.74-21.73 220.31-20.87 219.53-19.37 218.75-17.87 218.56-15.94L218.56-15.94 217.26-15.21Q217.26-18.41 218.12-21.06 218.97-23.71 220.79-25.31 222.61-26.9 225.47-26.9L225.47-26.9Q225.93-26.9 226.58-26.79 227.22-26.68 227.47-26.56L227.47-26.56ZM243.94-26.42L243.94-22.97 229.64-22.97 229.64-26.42 243.94-26.42ZM234.45-32.84L239.01-32.84 239.01-6.54Q239.01-5.18 239.43-4.49 239.84-3.81 240.5-3.59 241.16-3.37 241.92-3.37L241.92-3.37Q242.48-3.37 243.1-3.47 243.73-3.56 244.02-3.64L244.02-3.64 244.04 0Q243.51 0.17 242.64 0.33 241.77 0.49 240.55 0.49L240.55 0.49Q238.89 0.49 237.5-0.17 236.11-0.83 235.28-2.38 234.45-3.93 234.45-6.57L234.45-6.57 234.45-32.84Z" opacity="1" transform="matrix(1,0,0,1,0,0)" fill="#ffffff" class="undefined-text-1" data-fill-palette-color="secondary" id="text-1"></path></svg></g></svg></g></svg></g></svg></g></svg></g></svg></g></svg></g></svg></g><defs><mask id="ffa2ab15-f11b-407c-b6ea-fe490c7e5d35"><rect width="395.52" height="247.2" fill="white"></rect><g transform="matrix(1,0,0,1,139.4500825639875,37.08)" id="clone"><svg viewBox="0 0 116.61983487202497 173.04" height="173.04" width="116.61983487202497"><g><svg viewBox="0 0 116.61983487202497 173.04" height="173.04" width="116.61983487202497"><g><svg viewBox="0 0 147.464800476 218.8076248124425" height="173.04" width="116.61983487202497"><g><svg viewBox="0 0 147.464800476 218.8076248124425" height="218.8076248124425" width="147.464800476"><g id="SvgjsG1031"><svg viewBox="0 0 147.464800476 218.8076248124425" height="218.8076248124425" width="147.464800476" id="SvgjsSvg1030"><g><svg viewBox="0 0 147.464800476 171.9706128" height="171.9706128" width="147.464800476"><g transform="matrix(1,0,0,1,0,0)"><svg width="147.464800476" viewBox="0.5499999999999998 -38 35.3 41" height="171.9706128" data-palette-color="#ffffff"><path d="M14.9 0L3.55 0 3.55-35 14.9-35Q21.05-35 25.03-32.85 29-30.7 30.93-26.78 32.85-22.85 32.85-17.45L32.85-17.45Q32.85-12.1 30.93-8.18 29-4.25 25.03-2.13 21.05 0 14.9 0L14.9 0ZM8.85-30.55L8.85-4.5 14.7-4.5Q19.45-4.5 22.23-6.05 25-7.6 26.23-10.5 27.45-13.4 27.45-17.45L27.45-17.45Q27.45-21.5 26.23-24.45 25-27.4 22.23-28.98 19.45-30.55 14.7-30.55L14.7-30.55 8.85-30.55Z" opacity="1" transform="matrix(1,0,0,1,0,0)" fill="#ffffff" class="undefined-text-0" data-fill-palette-color="primary" id="SvgjsPath1029" stroke-width="5" stroke="black" stroke-linejoin="round"></path></svg></g></svg></g><g transform="matrix(1,0,0,1,2.5,193.9284225394488)"><svg viewBox="0 0 142.464800476 24.87920227299369" height="24.87920227299369" width="142.464800476"><g transform="matrix(1,0,0,1,0,0)"><svg width="142.464800476" viewBox="-0.08999999999999986 -40.5 247.13 43.99" height="24.87920227299369" data-palette-color="#ffffff"><path d="M25.56-11.28L30.3-11.28Q29.93-7.93 28.37-5.26 26.81-2.59 23.95-1.05 21.09 0.49 16.8 0.49L16.8 0.49Q12.62 0.49 9.5-1.55 6.37-3.59 4.64-7.3 2.91-11.01 2.91-15.97L2.91-15.97 2.91-19.56Q2.91-24.54 4.65-28.23 6.4-31.93 9.62-33.98 12.84-36.04 17.24-36.04L17.24-36.04Q21.26-36.04 24.05-34.53 26.83-33.03 28.38-30.35 29.93-27.66 30.3-24.15L30.3-24.15 25.56-24.15Q25.02-27.88 23.18-30.04 21.34-32.2 17.24-32.2L17.24-32.2Q14.09-32.2 11.96-30.63 9.84-29.05 8.75-26.22 7.67-23.39 7.67-19.6L7.67-19.6 7.67-15.97Q7.67-12.48 8.64-9.61 9.62-6.74 11.63-5.03 13.65-3.32 16.8-3.32L16.8-3.32Q19.8-3.32 21.57-4.27 23.34-5.22 24.26-7.01 25.17-8.79 25.56-11.28L25.56-11.28ZM34.79-12.92L34.79-13.48Q34.79-17.31 36.25-20.34 37.72-23.36 40.4-25.13 43.09-26.9 46.77-26.9L46.77-26.9Q50.51-26.9 53.22-25.13 55.93-23.36 57.38-20.34 58.84-17.31 58.84-13.48L58.84-13.48 58.84-12.92Q58.84-9.11 57.38-6.07 55.93-3.03 53.23-1.27 50.53 0.49 46.82 0.49L46.82 0.49Q43.11 0.49 40.41-1.27 37.72-3.03 36.25-6.07 34.79-9.11 34.79-12.92L34.79-12.92ZM39.35-13.48L39.35-12.92Q39.35-10.3 40.18-8.08 41.01-5.86 42.66-4.52 44.31-3.17 46.82-3.17L46.82-3.17Q49.31-3.17 50.96-4.52 52.61-5.86 53.44-8.08 54.27-10.3 54.27-12.92L54.27-12.92 54.27-13.48Q54.27-16.09 53.44-18.31 52.61-20.53 50.95-21.89 49.29-23.24 46.77-23.24L46.77-23.24Q44.31-23.24 42.65-21.89 40.99-20.53 40.17-18.31 39.35-16.09 39.35-13.48L39.35-13.48ZM81.15-5.13L81.15-37.5 85.71-37.5 85.71 0 81.54 0 81.15-5.13ZM63.4-12.92L63.4-13.43Q63.4-17.46 64.7-20.5 66.01-23.54 68.35-25.22 70.7-26.9 73.85-26.9L73.85-26.9Q77.17-26.9 79.39-25.38 81.61-23.85 82.87-21.04 84.13-18.24 84.49-14.36L84.49-14.36 84.49-11.99Q84.13-8.15 82.88-5.36 81.64-2.56 79.4-1.04 77.17 0.49 73.8 0.49L73.8 0.49Q70.7 0.49 68.35-1.26 66.01-3 64.7-6.03 63.4-9.06 63.4-12.92L63.4-12.92ZM67.96-13.43L67.96-12.92Q67.96-10.28 68.68-8.11 69.4-5.93 70.94-4.63 72.48-3.32 74.92-3.32L74.92-3.32Q77.17-3.32 78.62-4.27 80.07-5.22 80.95-6.79 81.83-8.35 82.32-10.18L82.32-10.18 82.32-16.11Q82.03-17.46 81.48-18.71 80.93-19.97 80.06-20.96 79.19-21.95 77.94-22.53 76.68-23.12 74.97-23.12L74.97-23.12Q72.5-23.12 70.95-21.8 69.4-20.48 68.68-18.27 67.96-16.06 67.96-13.43L67.96-13.43ZM103.7 0.49L103.7 0.49Q100.02 0.49 97.29-1.16 94.57-2.81 93.07-5.69 91.57-8.57 91.57-12.28L91.57-12.28 91.57-13.33Q91.57-17.63 93.22-20.67 94.87-23.71 97.51-25.31 100.16-26.9 103.12-26.9L103.12-26.9Q106.93-26.9 109.33-25.21 111.74-23.51 112.87-20.59 114.01-17.68 114.01-13.99L114.01-13.99 114.01-11.96 94.28-11.96 94.28-15.63 109.44-15.63 109.44-15.97Q109.34-17.72 108.73-19.4 108.12-21.07 106.78-22.16 105.44-23.24 103.12-23.24L103.12-23.24Q101.07-23.24 99.49-22.08 97.92-20.92 97.03-18.71 96.14-16.5 96.14-13.33L96.14-13.33 96.14-12.28Q96.14-9.77 97.06-7.7 97.99-5.64 99.75-4.41 101.51-3.17 103.95-3.17L103.95-3.17Q106.34-3.17 108-4.15 109.66-5.13 110.91-6.76L110.91-6.76 113.66-4.61Q112.39-2.66 110.01-1.09 107.63 0.49 103.7 0.49ZM136.61-26.42L136.61 0 132.04 0 132.04-26.42 136.61-26.42ZM131.7-33.45L131.7-33.45Q131.7-34.52 132.37-35.28 133.04-36.04 134.36-36.04L134.36-36.04Q135.68-36.04 136.38-35.28 137.07-34.52 137.07-33.45L137.07-33.45Q137.07-32.4 136.38-31.65 135.68-30.91 134.36-30.91L134.36-30.91Q133.04-30.91 132.37-31.65 131.7-32.4 131.7-33.45ZM159.19-7.01L159.19-7.01Q159.19-7.98 158.76-8.83 158.33-9.67 157.04-10.36 155.75-11.06 153.13-11.6L153.13-11.6Q150.2-12.21 148.07-13.15 145.93-14.09 144.77-15.55 143.61-17.02 143.61-19.19L143.61-19.19Q143.61-21.29 144.82-23.03 146.03-24.78 148.24-25.84 150.45-26.9 153.4-26.9L153.4-26.9Q156.58-26.9 158.84-25.79 161.09-24.68 162.29-22.81 163.49-20.95 163.49-18.68L163.49-18.68 158.92-18.68Q158.92-20.31 157.49-21.78 156.06-23.24 153.4-23.24L153.4-23.24Q151.55-23.24 150.39-22.67 149.23-22.09 148.7-21.2 148.18-20.31 148.18-19.34L148.18-19.34Q148.18-18.36 148.67-17.64 149.15-16.92 150.46-16.36 151.77-15.8 154.26-15.23L154.26-15.23Q157.5-14.5 159.6-13.48 161.7-12.45 162.73-10.96 163.75-9.47 163.75-7.32L163.75-7.32Q163.75-5.03 162.49-3.26 161.22-1.49 158.92-0.5 156.63 0.49 153.53 0.49L153.53 0.49Q150.03 0.49 147.62-0.76 145.2-2 143.95-3.97 142.71-5.93 142.71-8.13L142.71-8.13 147.28-8.13Q147.4-6.27 148.36-5.19 149.33-4.1 150.73-3.64 152.13-3.17 153.53-3.17L153.53-3.17Q155.38-3.17 156.64-3.67 157.9-4.17 158.54-5.04 159.19-5.91 159.19-7.01ZM195.9-32.42L184.16 0 179.28 0 192.85-35.55 195.98-35.55 195.9-32.42ZM205.74 0L193.95-32.42 193.9-35.55 197-35.55 210.6 0 205.74 0ZM205.16-13.13L205.16-9.3 185.16-9.3 185.16-13.13 205.16-13.13ZM219.24-22.27L219.24 0 214.67 0 214.67-26.42 219.12-26.42 219.24-22.27ZM227.47-26.56L227.47-22.39Q226.88-22.51 226.38-22.55 225.88-22.58 225.25-22.58L225.25-22.58Q223.17-22.58 221.74-21.73 220.31-20.87 219.53-19.37 218.75-17.87 218.56-15.94L218.56-15.94 217.26-15.21Q217.26-18.41 218.12-21.06 218.97-23.71 220.79-25.31 222.61-26.9 225.47-26.9L225.47-26.9Q225.93-26.9 226.58-26.79 227.22-26.68 227.47-26.56L227.47-26.56ZM243.94-26.42L243.94-22.97 229.64-22.97 229.64-26.42 243.94-26.42ZM234.45-32.84L239.01-32.84 239.01-6.54Q239.01-5.18 239.43-4.49 239.84-3.81 240.5-3.59 241.16-3.37 241.92-3.37L241.92-3.37Q242.48-3.37 243.1-3.47 243.73-3.56 244.02-3.64L244.02-3.64 244.04 0Q243.51 0.17 242.64 0.33 241.77 0.49 240.55 0.49L240.55 0.49Q238.89 0.49 237.5-0.17 236.11-0.83 235.28-2.38 234.45-3.93 234.45-6.57L234.45-6.57 234.45-32.84Z" opacity="1" transform="matrix(1,0,0,1,0,0)" fill="#ffffff" class="undefined-text-1" data-fill-palette-color="secondary" id="SvgjsPath1028" stroke-width="5" stroke="black" stroke-linejoin="round"></path></svg></g></svg></g></svg></g></svg></g></svg></g></svg></g></svg></g></mask></defs></svg><rect width="395.52" height="247.2" fill="none" stroke="none" visibility="hidden"></rect></g></svg></g></svg>